<?xml version="1.0" encoding="utf-8"?>
<!-- Generator: Adobe Illustrator 28.0.0, SVG Export Plug-In . SVG Version: 6.00 Build 0)  -->
<svg version="1.1" id="Layer_1" xmlns="http://www.w3.org/2000/svg" xmlns:xlink="http://www.w3.org/1999/xlink" x="0px" y="0px"
	 viewBox="0 0 1920 701.2" style="enable-background:new 0 0 1920 701.2;" xml:space="preserve">
<style type="text/css">
	.st0{fill:#182D3F;}
	.st1{fill:#006BFF;}
</style>
<g>
	<path class="st0" d="M1475.7,287.2c-8.5-19-21.4-36.9-38.6-53.7c-16.9-16.7-36.9-29.9-58.9-38.7c-21.4-8.5-45.3-12.8-71.9-12.8
		c-51.9,0-95.5,17.2-130.7,51.5c-34.3,33.3-51.4,73.4-51.4,120.2c0,17,2.5,34,7.4,50.3h-116.9V276.6l-122.5,25.2v39.1
		c0,5-0.1,9.5-0.2,13.8v49.4H737.4l0.1-0.1H538.4V227.6l-122.5,25.5l0.9,272.4c-4.4,31.1-24.6,50.2-60.6,57.5l52.1,88.7
		c81.8-24.5,124.1-73.2,127-146.1h416.9l62.3-60.5v60.5h291.8c24.4,0.3,48.6-4.3,71.1-13.6c22.1-8.5,42.2-21.3,59.1-37.8
		c15.9-15.8,29.1-34.1,38.9-54.3c8.7-19.5,13-41.6,13-66.2C1488.5,328.1,1484.2,305.9,1475.7,287.2z M1343.2,392.1
		c-9.1,8.4-21.4,12.6-37,12.6c-15.4,0-27.7-4.2-37-12.6c-9.6-8.3-14.4-21.1-14.4-38.5c0-17.2,4.8-30.1,14.4-38.7
		c9.5-8.6,21.8-12.9,37-12.9c15.4,0,27.7,4.2,37,12.9c9.3,8.4,13.9,21.3,13.9,38.7C1357.2,371,1352.5,383.8,1343.2,392.1z"/>
	<path class="st0" d="M184.2,181.9c-95,0-172,76.9-172,172c0,95,77,171.9,172,171.9c95,0,172-76.9,172-171.9
		C356.2,258.9,279.1,181.9,184.2,181.9z M184.2,404.2c-27.8,0-50.4-22.6-50.4-50.4c0-27.8,22.6-50.4,50.4-50.4
		c27.8,0,50.4,22.6,50.4,50.4C234.5,381.7,212,404.2,184.2,404.2z"/>
	<path class="st1" d="M1671.2,129h-35.1v118.8h36.8c65.7,0,109.4,15.5,109.4,79v1.1c0,64-43.6,76-109.4,76h-36.8h-8h-110v121.8H1669
		c142.8,0,234.1-85,234.1-199.5v-1.1C1903.1,210.6,1812.9,129,1671.2,129"/>
	<path class="st0" d="M1022.2,108.9c-11.4-11.7-27.2-18.2-43.5-18c-16.3-0.3-32,6.2-43.2,18c-11.7,11.3-18.2,27-18,43.2
		c-0.3,16.4,6.2,32.2,18,43.5c11.3,11.8,26.9,18.3,43.2,18c16.4,0.3,32.1-6.2,43.5-18c11.6-11.5,18-27.2,17.7-43.5
		C1040.1,135.9,1033.7,120.2,1022.2,108.9z"/>
	<path class="st0" d="M1349.5,47.5c-11.4-11.7-27.2-18.2-43.5-18c-16.3-0.3-32,6.2-43.2,18c-11.7,11.3-18.2,27-18,43.2
		c-0.3,16.4,6.2,32.2,18,43.5c11.3,11.8,26.9,18.3,43.2,18c16.4,0.3,32.1-6.2,43.5-18c11.6-11.5,18-27.2,17.7-43.5
		C1367.5,74.5,1361.1,58.9,1349.5,47.5z"/>
	<path class="st0" d="M892.5,108.9c-11.4-11.7-27.2-18.2-43.5-18c-16.3-0.3-32,6.2-43.2,18c-11.7,11.3-18.2,27-18,43.2
		c-0.3,16.4,6.2,32.2,18,43.5c11.3,11.8,26.9,18.3,43.2,18c16.4,0.3,32.1-6.2,43.5-18c11.6-11.5,18-27.2,17.7-43.5
		C910.4,135.9,904,120.2,892.5,108.9z"/>
	<path class="st0" d="M292.5,48.8c-11.4-11.7-27.2-18.2-43.5-18c-16.3-0.3-32,6.2-43.2,18c-11.7,11.3-18.2,27-18,43.2
		c-0.3,16.4,6.2,32.2,18,43.5c11.3,11.8,26.9,18.3,43.2,18c16.4,0.3,32.1-6.2,43.5-18c11.6-11.5,18-27.2,17.7-43.5
		C310.5,75.8,304.1,60.2,292.5,48.8z"/>
	<path class="st0" d="M162.8,48.8c-11.4-11.7-27.2-18.2-43.5-18c-16.3-0.3-32,6.2-43.2,18c-11.7,11.3-18.2,27-18,43.2
		c-0.3,16.4,6.2,32.2,18,43.5c11.3,11.8,26.9,18.3,43.2,18c16.4,0.3,32.1-6.2,43.5-18c11.6-11.5,18-27.2,17.7-43.5
		C180.8,75.8,174.4,60.2,162.8,48.8z"/>
</g>
</svg>
